{"title":"Johnny Gaddaar_(2007)_317 mb_Hindi Bollywood movies_{somnath2003","uid":8473808,"size":332308278,"categoryP":"video","categoryS":"movies","magnet":"?xt=urn:btih:1679e5a89393b626c3cedddf9351ff7066c85354&amp;dn=Johnny+Gaddaar_%282007%29_317+mb_Hindi+Bollywood+movies_%7Bsomnath2003&amp;tr=udp%3A%2F%2Ftracker.openbittorrent.com%3A80&amp;tr=udp%3A%2F%2Fopen.demonii.com%3A1337&amp;tr=udp%3A%2F%2Ftracker.coppersurfer.tk%3A6969&amp;tr=udp%3A%2F%2Fexodus.desync.com%3A6969","seeders":0,"leechers":1,"uploader":"somnath2003","files":2,"time":1368561328,"description":"[img]http://www.shotpix.com/images/69625477564660766679.jpg[/img]\n\n\n\n\nIMDB Link :- [url]http://www.imdb.com/title/tt1077248[/url]\n\n\n\n[b] Movie Name:- Johnny Gaddaar (2007)\n\nCertificate:- A\n\nGenres:-Crime | Drama | Thriller\n\nRelease Date:- 28 September 2007 (India)\n\n\nRatings: 7.7/10 from 3,711 users\n\nDirector:- Sriram Raghavan\n\nWriters:-Vinay Choudary , Sriram Raghavan\n\nStars:_Dharmendra, Rimi Sen, Ashwini Khalsekar..... [/b]\n\n\n[b]Story Line:- Police officers recount a tale of missing money which results in lies, deceit, betrayal and death.\n[/b]\n\n\n\n\n[b]General:-[/b]\n\n\n\n[code]Complete name : Johnny Gaddar_Hindi_2007\nFormat : Matroska\nFormat version : Version 2\nFile size : 312 MiB\nDuration : 2h 14mn\nOverall bit rate : 324 Kbps\nWriting application : Lavf53.6.0\nWriting library : Lavf53.6.0[/code]\n\n\n\n[b]Video:-[/b]\n\n\n[code]ID : 1\nFormat : MPEG-4 Visual\nFormat profile : Simple@L3\nFormat settings, BVOP : No\nFormat settings, QPel : No\nFormat settings, GMC : No warppoints\nFormat settings, Matrix : Default (H.263)\nCodec ID : V_MPEG4/ISO/ASP\nCodec ID/Info : Advanced Simple Profile\nDuration : 2h 14mn\nBit rate : 309 Kbps\nWidth : 480 pixels\nHeight : 272 pixels\nDisplay aspect ratio : 16:9\nFrame rate mode : Constant\nFrame rate : 25.000 fps\nColor space : YUV\nChroma subsampling : 4:2:0\nBit depth : 8 bits\nScan type : Progressive\nCompression mode : Lossy\nBits/(Pixel*Frame) : 0.095\nStream size : 298 MiB (96%)\nWriting library : XviD 63\nDefault : Yes\nForced : No[/code]\n\n\n\n[b]Audio:-[/b]\n\n\n[code]ID : 2\nFormat : MPEG Audio\nFormat version : Version 2\nFormat profile : Layer 3\nMode : Joint stereo\nMode extension : MS Stereo\nCodec ID : A_MPEG/L3\nCodec ID/Hint : MP3\nDuration : 2h 14mn\nBit rate mode : Constant\nBit rate : 8 000 bps\nChannel(s) : 2 channels\nSampling rate : 22.05 KHz\nCompression mode : Lossy\nDelay relative to video : 2ms\nStream size : 7.72 MiB (2%)\nDefault : Yes\nForced : No[/code]\n\n\n\n\n[img]http://www.shotpix.com/images/39741266100115848635.gif[/img]\n\n\n\n\n[img]http://www.shotpix.com/images/22753022384840266507.png[/img]\n\n\n\n[img]http://www.shotpix.com/images/43651011981829828419.png[/img]\n\n\n\n[img]http://www.shotpix.com/images/88415055645352871784.png[/img]\n\n\n\n[img]http://www.shotpix.com/images/44132677014185971392.png[/img]\n\n\n\n[img]http://www.shotpix.com/images/56684554886895895295.png[/img]\n\n\n\n[img]http://www.shotpix.com/images/06579233777291415826.gif[/img]\n\n\n\n\n[img]http://www.shotpix.com/images/37530658244654420663.jpg[/img]\n","torrent":{"xt":"urn:btih:1679e5a89393b626c3cedddf9351ff7066c85354","amp;dn":"Johnny+Gaddaar_%282007%29_317+mb_Hindi+Bollywood+movies_%7Bsomnath2003","amp;tr":["udp%3A%2F%2Ftracker.openbittorrent.com%3A80","udp%3A%2F%2Fopen.demonii.com%3A1337","udp%3A%2F%2Ftracker.coppersurfer.tk%3A6969","udp%3A%2F%2Fexodus.desync.com%3A6969"],"infoHash":"1679e5a89393b626c3cedddf9351ff7066c85354","infoHashBuffer":{"type":"Buffer","data":[22,121,229,168,147,147,182,38,195,206,221,223,147,81,255,112,102,200,83,84]},"announce":[],"urlList":[]}}